<?xml version="1.0" encoding="UTF-8" standalone="no"?>
<!-- Created with Inkscape (http://www.inkscape.org/) -->

<svg
   xmlns:dc="http://purl.org/dc/elements/1.1/"
   xmlns:cc="http://creativecommons.org/ns#"
   xmlns:rdf="http://www.w3.org/1999/02/22-rdf-syntax-ns#"
   xmlns:svg="http://www.w3.org/2000/svg"
   xmlns="http://www.w3.org/2000/svg"
   xmlns:sodipodi="http://sodipodi.sourceforge.net/DTD/sodipodi-0.dtd"
   xmlns:inkscape="http://www.inkscape.org/namespaces/inkscape"
   id="svg2985"
   version="1.1"
   inkscape:version="0.48.2 r9819"
   width="680.87775"
   height="300.10135"
   xml:space="preserve"
   sodipodi:docname="Skype_logo.svg"><metadata
     id="metadata2991"><rdf:RDF><cc:Work
         rdf:about=""><dc:format>image/svg+xml</dc:format><dc:type
           rdf:resource="http://purl.org/dc/dcmitype/StillImage" /><dc:title /></cc:Work></rdf:RDF></metadata><defs
     id="defs2989"><clipPath
       clipPathUnits="userSpaceOnUse"
       id="clipPath2999"><path
         d="m 0,0 595.276,0 0,841.89 L 0,841.89 0,0 z"
         id="path3001"
         inkscape:connector-curvature="0" /></clipPath></defs><sodipodi:namedview
     pagecolor="#ffffff"
     bordercolor="#666666"
     borderopacity="1"
     objecttolerance="10"
     gridtolerance="10"
     guidetolerance="10"
     inkscape:pageopacity="0"
     inkscape:pageshadow="2"
     inkscape:window-width="1600"
     inkscape:window-height="837"
     id="namedview2987"
     showgrid="false"
     fit-margin-left="0.1"
     fit-margin-bottom="0.1"
     fit-margin-top="0.1"
     fit-margin-right="0.1"
     inkscape:zoom="1.04"
     inkscape:cx="162.3809"
     inkscape:cy="186.15237"
     inkscape:window-x="-8"
     inkscape:window-y="-8"
     inkscape:window-maximized="1"
     inkscape:current-layer="g2995" /><g
     id="g2993"
     inkscape:groupmode="layer"
     inkscape:label="corporate_factsheet"
     transform="matrix(1.25,0,0,-1.25,-0.4749225,1019.5073)"><g
       id="g2995"><g
         id="g2997"
         clip-path="url(#clipPath2999)"
         transform="translate(-17.836653,14.269323)"><path
           d="m 444.9731,695.46889 50.01746,0 c -1.5455,13.07965 -11.31664,22.68471 -24.02417,22.68471 -14.29887,0 -22.89081,-8.80373 -25.99329,-22.68471 m -76.64606,-42.43295 c 18.1569,0.20597 22.63893,18.40305 22.63893,31.69447 0,16.81752 -7.42422,30.86451 -22.63893,31.07055 -16.65151,0.21757 -22.89656,-14.83693 -22.89656,-31.07055 0,-14.67664 5.49521,-31.69447 22.89656,-31.69447 m 194.51159,73.20585 c 0,16.56564 -13.38302,29.94292 -29.93719,29.94292 -8.55758,0 -16.23361,-3.56612 -21.67726,-9.31314 -12.66749,8.80366 -28.01392,13.96112 -44.61958,13.96112 -16.77168,0 -32.23833,-5.27763 -44.9917,-14.2531 -5.74129,5.32347 -13.37156,8.55758 -21.79744,8.55758 -6.25078,0 -12.08366,-1.80877 -17.02355,-4.90558 -11.70015,20.87593 -34.00707,34.96874 -59.62824,34.96874 -23.43462,0 -44.07006,-11.74591 -56.43417,-29.64527 -10.31493,10.6011 -24.73971,17.18956 -40.71579,17.18956 -10.56673,0 -20.41794,-2.89642 -28.88964,-7.92219 -0.20597,20.16606 -16.56563,36.43405 -36.77179,36.43405 -20.33788,0 -36.81192,-16.47976 -36.81192,-36.77179 l 0.0859,-1.42534 c -3.9439,0.58383 -7.96795,0.92165 -12.07786,0.92165 -11.992067,0 -23.314438,-2.63889 -33.503322,-7.33836 -5.741359,3.06243 -12.243943,4.82544 -19.204452,4.82544 -22.347026,0 -40.544035,-18.15697 -40.544035,-40.54977 0,-11.86608 5.157463,-22.47293 13.251388,-29.89708 -0.212115,-2.43278 -0.337611,-4.90559 -0.337611,-7.3784 0,-44.36203 35.97613,-80.29233 80.338162,-80.29233 17.2296,0 33.21134,5.44937 46.28526,14.67665 11.78603,-16.10771 30.78436,-26.62868 52.24986,-26.62868 0.54358,0 1.04754,0.041 1.5455,0.0859 6.21067,-17.56734 22.85644,-30.14897 42.51882,-30.14897 19.87995,0 36.7718,12.91364 42.72493,30.81873 6.84033,-12.95947 20.3779,-21.76312 36.01624,-21.76312 19.54212,0 35.85589,13.79511 39.79413,32.15813 2.81055,-0.37172 5.70118,-0.62953 8.59761,-0.62953 15.93598,0 30.40084,6.04466 41.41977,15.89593 12.50156,-8.51181 27.63613,-13.50326 43.90412,-13.50326 43.23435,0 78.24307,35.05456 78.24307,78.28318 0,5.3292 -0.50335,10.56673 -1.55124,15.59829 11.40252,4.23581 19.5422,15.17467 19.5422,28.04821 m -40.84168,-34.88282 c 0,-9.77113 -2.93646,-12.28398 -12.53579,-12.28398 l -64.48806,0 c 0,-15.05449 9.76534,-26.03905 26.37108,-26.03905 21.51125,0 21.51125,14.08703 33.03966,14.08703 6.84033,0 11.74019,-5.87293 11.74019,-11.15057 0,-17.18956 -27.58456,-25.19762 -44.77985,-25.19762 -32.45012,0 -48.47196,17.85926 -53.29167,37.89942 -4.31597,-21.0075 -18.07677,-37.89942 -42.51882,-37.89942 -13.07965,0 -22.84498,5.27764 -28.12835,14.45915 l -0.41809,0 0,-38.11699 c 0,-9.38756 -5.66689,-14.29314 -14.25877,-14.29314 -8.6034,0 -14.25883,4.90558 -14.25883,14.29314 l 0,106.33712 -32.07798,-90.90484 c -6.82888,-19.53647 -14.67672,-29.72542 -32.6619,-29.72542 -12.70186,0 -17.99096,6.25078 -17.99096,13.12542 0,7.636 5.49521,11.53413 13.13114,11.53413 l 2.93081,0 c 3.69202,0 7.79621,0.16028 9.9428,8.96967 l -29.69105,84.6542 c -1.04755,3.06237 -1.84321,5.36351 -2.42704,7.29825 -0.67522,-0.88153 -1.42534,-1.6772 -2.31253,-2.60451 L 206.2254,693.70597 235.95649,653.8317 c 0.96167,-1.33939 2.9308,-4.4877 2.9308,-9.1815 0,-7.25243 -5.86727,-13.87526 -13.49754,-13.87526 -7.04638,0 -10.77851,3.51463 -12.91365,6.62283 l -26.96635,38.15702 -9.97711,-8.80372 0,-21.72303 c 0,-9.35325 -5.66122,-14.2531 -14.25883,-14.2531 -8.63772,0 -14.29887,4.89985 -14.29887,14.2531 l 0,10.52664 c -5.11163,-16.85756 -24.19018,-24.77974 -42.59896,-24.77974 -25.787176,0 -47.292768,11.52842 -47.292768,25.61544 0,6.24504 3.520358,11.90619 11.528413,11.90619 12.324016,0 13.503198,-17.60738 34.590905,-17.60738 10.14885,0 16.60567,4.52774 16.60567,10.35496 0,7.25242 -6.25071,8.42588 -16.3939,10.98456 l -16.811779,4.06987 c -16.605669,4.10419 -29.519309,10.98463 -29.519309,30.14898 0,23.22276 23.062489,31.86048 42.805072,31.86048 21.677266,0 43.606396,-8.63772 43.606396,-21.7173 0,-6.66293 -4.5278,-12.49582 -11.94629,-12.49582 -11.1563,0 -11.53408,13.08538 -29.51931,13.08538 -9.977182,0 -16.434003,-2.72469 -16.434003,-8.80373 0,-6.62849 6.456821,-8.21982 15.260543,-10.15457 l 11.9062,-2.7648 c 13.71504,-3.10247 29.60518,-8.51174 34.21312,-22.09507 l 0,89.18193 c 0,9.34744 5.66115,14.25302 14.29887,14.25302 8.59761,0 14.25883,-4.90558 14.25883,-14.25302 l 0,-64.90023 31.65437,35.1748 c 2.93653,3.14257 6.66867,5.48941 10.94459,5.48941 4.65371,0 9.59933,-3.0166 11.992,-7.37839 2.30687,4.44766 6.92047,7.37839 12.28398,7.37839 7.63027,0 12.91363,-4.31595 14.63088,-10.77278 l 18.40878,-66.66896 0.37785,0 17.40708,64.69411 c 1.96904,7.25822 5.86719,12.74763 13.70923,12.74763 6.74881,0 10.64688,-3.34861 12.7076,-6.78877 1.71152,4.40183 5.52952,6.78877 11.69442,6.78877 8.42588,0 12.91358,-4.73384 12.91358,-13.49746 l 0,-4.4877 0.41809,0 c 4.69954,12.11223 16.22789,17.98516 30.0631,17.98516 20.3779,0 38.57492,-12.78767 43.48623,-39.49649 5.52952,24.15014 24.10431,39.49649 52.15825,39.49649 32.83362,0 51.61445,-23.26853 51.61445,-46.74891 m 8.84383,44.69398 5.58101,0 c 0,0 0.041,0 4.27593,-12.36411 l 3.98401,12.36411 5.52945,0 0,-17.98522 -3.6863,0 c 0,0 -0.041,0 -0.041,12.74763 l -4.40755,-12.74763 -3.06244,0 c 0,0 -0.041,0 -4.44186,12.62173 l 0,-12.62173 -3.73213,0 0,17.98522 z m -16.77174,-3.30857 0,3.30857 14.71675,0 0,-3.30857 -5.3635,0 0,-14.67665 -3.98402,0 0,14.67665 -5.36923,0 z"
           style="fill:#00adef;fill-opacity:1;fill-rule:nonzero;stroke:none"
           id="path3003"
           inkscape:connector-curvature="0" /></g></g></g></svg>