<?xml version="1.0" encoding="UTF-8" standalone="no"?>
<svg
   xmlns:dc="http://purl.org/dc/elements/1.1/"
   xmlns:cc="http://creativecommons.org/ns#"
   xmlns:rdf="http://www.w3.org/1999/02/22-rdf-syntax-ns#"
   xmlns:svg="http://www.w3.org/2000/svg"
   xmlns="http://www.w3.org/2000/svg"
   xmlns:sodipodi="http://sodipodi.sourceforge.net/DTD/sodipodi-0.dtd"
   xmlns:inkscape="http://www.inkscape.org/namespaces/inkscape"
   width="1312"
   height="976"
   preserveAspectRatio="xMidYMid meet"
   id="svg3012"
   version="1.1"
   inkscape:version="0.48.5 r10040"
   sodipodi:docname="VIKIPAN1.svg">
  <defs
     id="defs3037" />
  <sodipodi:namedview
     pagecolor="#ffffff"
     bordercolor="#666666"
     borderopacity="1"
     objecttolerance="10"
     gridtolerance="10"
     guidetolerance="10"
     inkscape:pageopacity="0"
     inkscape:pageshadow="2"
     inkscape:window-width="1920"
     inkscape:window-height="1136"
     id="namedview3035"
     showgrid="false"
     inkscape:zoom="0.48360656"
     inkscape:cx="705.59881"
     inkscape:cy="431.1516"
     inkscape:window-x="-4"
     inkscape:window-y="-4"
     inkscape:window-maximized="1"
     inkscape:current-layer="g3833" />
  <metadata
     id="metadata3826">Created by potrace 1.11, written by Peter Selinger 2001-2013image/svg+xml<rdf:RDF>
  <cc:Work
     rdf:about="">
    <dc:format>image/svg+xml</dc:format>
    <dc:type
       rdf:resource="http://purl.org/dc/dcmitype/StillImage" />
    <dc:title></dc:title>
  </cc:Work>
</rdf:RDF>
</metadata>
  <g
     id="g3828">
    <title
       id="title3016">background</title>
    <rect
       x="-1"
       y="-1"
       width="1314"
       height="978"
       id="canvas_background"
       fill="none" />
  </g>
  <g
     id="g3833">
    <title
       id="title3020">Layer 1</title>
    <path
       d="m 474.79999,2.19999 c -74.69606,18.478234 -135.14834,71.322281 -194.32697,118.02608 -13.09615,18.95325 -65.31427,42.91965 -44.39363,49.75427 -12.78229,20.28387 -59.23544,37.53803 -37.45354,46.14779 -37.25376,42.84396 -33.33193,90.72414 -41.88617,149.14984 -12.09996,106.95295 28.58185,226.79139 125.36033,282.62206 24.60311,34.14732 -20.07576,121.333 52.02499,109.34997 -12.26096,41.51905 25.28687,72.31367 57.40631,76.05423 -15.18591,37.48199 -97.0497,25.08853 -85.55492,87.08705 -9.12745,28.53593 1.30866,77.95712 5.04117,19.63362 -3.65387,-28.63269 36.20212,-92.76678 33.10061,-51.26187 -12.69392,18.84409 -28.86327,86.63143 -12.6517,79.77654 0.96643,-47.57885 19.36155,-116.61279 80.23779,-108.68578 26.61364,-1.13216 18.41441,25.06705 27.59639,-2.27911 27.37005,-17.9698 -35.71995,-44.15663 -51.82787,-38.47056 -42.94938,13.07966 -69.10138,-58.9253 -23.67279,-60.30413 6.56019,-27.90744 -40.55186,-79.99945 -12.49645,-24.0659 -9.5797,47.88765 -95.00654,-11.57857 -53.12235,-47.11665 15.98636,-63.45229 -72.30113,-70.2791 -90.76971,-120.69558 C 148.42193,477.55189 153.68822,361.96004 180.89479,263.00532 201.35202,216.02989 238.41055,180.92767 269.20954,141.0964 339.59291,83.643212 413.70448,20.506144 506.84124,6.6286497 551.95047,-2.9361835 483.52821,-0.99005017 474.79999,2.19999 z m -282.4,233.90002 c -8.65675,6.83853 6.10332,-10.26967 0,0 z M 184,243.89999 c -2.53927,5.77738 -3.07489,-2.23251 0,0 z m 220.89999,584.69999 c 2.70246,25.8132 -19.43811,-6.87814 0,0 z m 15.80002,5 c -2.42255,10.92848 38.10386,21.71647 -2.49034,20.72864 -10.29583,-3.67336 -14.93817,-29.09146 2.49034,-20.72864 z m -18,12 c -3.32619,2.8172 -1.42716,-2.43898 0,0 z m -1.40002,7.10003 c -3.33137,9.64457 -26.4737,-2.95617 0,0 z M 383,857 c -6.68723,7.16113 -16.71595,-1.92003 0,0 z m -20,8.59998 c -12.11978,8.55913 6.28664,-9.01039 0,0 z M 357,870.5 c -7.0101,6.44517 3.21185,-6.90282 0,0 z m -6,8.40003 c -3.52608,8.17983 -3.23176,-3.70222 0,0 z"
       id="svg_2"
       inkscape:connector-curvature="0" />
    <path
       d="m 603,1.899986 c 57.26974,13.835899 100.97856,36.465393 149.25167,69.455954 34.71079,32.87513 70.50196,64.07703 90.5174,99.53342 25.92597,41.32722 37.07737,90.94048 45.6049,138.59667 -0.13115,54.87492 -20.59552,107.71993 -15.21999,162.94877 6.5029,46.51615 -33.99154,111.4172 14.68542,142.26272 19.50488,1.49428 86.25312,-1.0557 35.96059,20.7025 -11.53052,18.0886 -52.30302,-6.33984 -30.44997,26.62496 -21.90027,-8.30338 -53.04689,27.44465 -16.21252,3.71252 -7.50185,21.54826 -36.81678,69.22099 -56.6253,102.67858 -11.61161,23.68972 6.18264,99.47363 -24.69183,88.85728 17.22067,-43.44321 -6.78087,-100.83526 43.28943,-129.64886 43.43533,-58.40455 -35.04623,-9.14908 -54.17922,6.54253 -43.8101,35.44041 -93.58348,63.45793 -135.1329,101.42932 -1.3216,12.60311 -33.00203,27.31345 -17.98516,5.00368 -29.33933,16.89857 -83.46659,59.77922 -106.04038,45.02691 19.67342,-14.8432 83.36741,-35.35422 26.61544,-22.91391 -40.65847,12.31626 -66.91442,83.48702 -109.75306,31.1574 -17.18505,-23.36938 -41.51565,-29.24586 -19.33052,5.37677 20.1154,31.01921 -11.16306,-34.89172 18.94867,8.91877 15.21175,27.0272 58.08953,2.69908 25.64742,32.66249 -16.75174,37.65304 -56.92841,-74.10539 -56.95133,-27.51537 21.51746,19.06678 -42.00199,16.10085 9.53773,19.4753 32.18205,-11.54699 47.86316,73.53981 56.21875,12.11398 16.17375,-40.96473 24.70942,-15.03586 20.0968,12.81329 11.15776,58.29604 6.14654,-96.32457 25.30634,-41.40455 0.29372,6.57195 -4.41454,48.49568 5.47914,22.1514 -1.57673,31.08535 22.23812,51.94712 12.67344,7.81678 -4.85217,-30.90704 -2.41173,-61.06459 0.65313,-10.32007 0.20855,25.10734 20.38814,55.09587 7.98594,11.34077 4.59972,-19.23449 40.84018,5.91886 9.66347,17.60793 21.28171,33.67081 15.59701,-42.85825 2.46724,-35.94846 24.56605,6.47096 17.55948,60.81829 32.64956,39.89597 37.56668,21.7218 27.18152,-2.06392 13.40633,-24.27253 18.31965,-35.31673 32.78601,-94.02893 67.25789,-79.79057 -33.71994,-9.15515 86.63799,-5.91141 50.85549,-51.79233 21.89697,-34.44003 106.75286,-107.85842 107.92993,-92.00386 -35.31742,32.96447 -49.00841,76.41939 -36.96734,121.87484 -37.46573,32.68789 -98.5638,42.48503 -97.90743,106.10284 -19.279,61.54938 21.78088,-24.29262 24.18964,-42.51338 2.39881,-30.44088 87.4322,-50.36369 36.20626,-24.1253 -26.40669,29.60758 -38.65608,61.49549 -44.54097,89.11113 19.35884,-47.50807 60.84911,-93.3694 103.23029,-119.15891 1.64728,-64.01944 26.35485,-119.9463 64.83171,-168.62425 22.15813,-23.51412 75.9366,-84.13372 101.1121,-53.1983 -14.24144,24.67361 -79.84434,17.7866 -43.75926,40.47535 12.0023,-16.10004 60.90906,-37.14077 71.69846,-56.79083 -21.31789,4.59794 42.4939,5.33013 46.4009,29.45253 35.6892,54.67099 90.9929,90.03821 143.0217,127.50805 22.4415,9.15928 22.8874,18.79748 9.3055,24.27819 50.9004,5.07732 36.6957,97.39741 90.8046,117.10107 8.8155,-4.03116 -51.9316,-50.30716 -46.1931,-82.03601 -11.4188,-58.98168 -72.7485,-71.30754 -108.8048,-109.56715 -49.3235,-24.81194 -67.7713,-83.54687 -117.2396,-106.50995 -42.8701,-6.54908 -87.16897,2.06019 -130.80347,-11.10466 -56.44757,-25.39527 2.40103,-109.88194 -12.40807,-160.68722 -5.92492,-50.78678 24.49257,-99.8088 9.33308,-150.7255 C 877.47974,201.25995 835.37753,109.41481 760.568,52.609559 739.95605,40.356466 697.69648,10.815541 699.04761,24.687537 668.67519,1.9439915 638.75103,4.5742971 603,1.899986 z m 39,7.1 c -1.24482,3.810685 -2.31014,-3.9139601 0,0 z m 29.70001,5.6 c -3.32627,2.817086 -1.42711,-2.438888 0,0 z m 40.40003,13.900001 c -6.31243,7.392738 -3.95658,-6.016964 0,0 z m -22.10004,2.5 c -2.53663,4.084631 -3.47171,-4.170775 0,0 z m 29.40002,5.199999 c -6.15195,4.520187 -4.74695,-9.276282 0,0 z M 736.5,39.899987 c -0.13576,5.192636 -3.35715,-3.396267 0,0 z m -8.70001,3.700001 c 3.12225,18.013562 -18.59814,-11.878713 0,0 z m 8,7.899998 c 36.48379,5.603559 9.48356,20.687826 0,0 z m 25.40002,9.200001 c 19.98288,21.317467 -26.11481,-1.635062 0,0 z m 13.59998,12.600002 c 29.30384,16.675396 -1.93646,20.03716 0,-10e-7 l 0,10e-7 z M 770.5,80.999986 c -3.47171,4.170775 -2.53663,-4.084631 0,0 z m 4.5,3 c -2.41328,3.927094 -2.41328,-3.927094 0,0 z m 3.5,2 c -2.53663,4.084631 -3.47171,-4.170775 0,0 z m 4.90002,3.200005 c 1.8815,10.436836 -7.34429,-7.974204 0,0 z m 11.89997,9.799995 c 44.17757,30.303514 -18.33219,0.05874 0,0 z m 14.30004,16.200004 c 30.2896,48.25757 -19.60425,-11.1184 0,0 z m 84.79999,531.89999 c -4.52819,2.08656 0.18429,-4.98238 0,0 z m 9.5,2.5 c -3.47432,21.38114 -18.52436,-9.11723 0,0 z m -131,103 c -13.69994,11.7834 -3.82781,16.07317 0,0 z M 761,760.40003 c -1.77343,3.87449 -3.04352,-2.09093 0,0 z m -2,5.39996 c -22.59992,16.91616 -65.08352,63.64906 -40.60469,65.34274 -0.39077,17.34092 -18.80808,-2.26116 -30.22277,17.33553 -27.01243,11.03363 -54.71435,7.16134 -9.71763,-2.23658 C 711.25734,825.02338 722.50927,771.9836 759,765.79999 z m -50.09998,33.5 c -3.63942,32.70192 -98.78957,73.64354 -36.74506,29.74834 12.16601,-10.00251 23.22709,-21.49962 36.74506,-29.74834 z M 802.5,805.90003 c -0.13586,5.19259 -3.35707,-3.39637 0,0 z m -94.5,34.5 c -0.34105,18.01683 -9.27991,-3.63483 0,0 z m -87.70001,14.29998 -2.44059,-0.0472 2.44059,0.0472 z m 16.5,2.29999 c -12.62168,41.49926 -35.64003,4.66035 0,0 z m -25.09998,10.20001 c 10.10332,32.15482 -32.35898,75.2432 -54.99686,47.35668 -19.99856,36.95818 -19.35971,-38.91166 17.33897,-24.81288 39.01937,-6.20522 13.92061,-9.59133 18.14388,-9.46687 9.2856,-7.69513 -14.42325,-5.67073 15.36058,-14.38519 l 2.76292,0.037 1.39051,1.27123 0,0 z m 178,1.39997 c -3.32621,2.81718 -1.42715,-2.43894 0,0 z M 625.90002,895.20001 C 615.60517,915.43058 577.86255,943.76573 609,964 c -44.19233,-7.97663 -7.65159,-61.98726 16.90002,-68.79999 z m -91.60003,31.5 c -14.83362,-8.63293 9.09841,-27.32118 0,0 z m -34.29999,-12 c -6.2346,13.33414 -15.58535,-3.13976 0,0 z m 34.79999,18.5 c 9.09836,23.40306 -6.77499,24.2601 0,0 z M 587,958.09998 c -5.78531,8.3198 -3.06533,-8.32779 0,0 z m 3.40002,1 c -4.52819,2.08656 0.18429,-4.98238 0,0 z M 539.20001,964 c -2.6493,10.30206 0.0276,-12.74694 0,0 z M 613,974.20001 c -7.43259,4.27798 -1.18191,-11.99713 0,0 z"
       id="svg_6"
       inkscape:connector-curvature="0" />
    <path
       d="m 707.5,467.19998 c -33.07722,7.95382 -87.25347,59.24879 -72.20298,77.37466 20.63647,-38.99446 64.39809,-87.97357 113.06841,-66.58865 40.71699,0.0518 44.57264,114.31888 43.66723,44.22684 C 791.83642,485.34751 740.2344,461.45965 707.5,467.19998 z"
       id="svg_25"
       inkscape:connector-curvature="0" />
    <path
       d="m 689.60004,492.60001 c -11.61428,18.38068 -52.17376,64.76799 -13.95698,56.1802 -1.13893,-57.00216 103.28588,-60.52415 104.69356,3.43829 1.42647,21.03233 -49.05641,76.82503 -6.09256,33.41539 32.63461,-60.13695 -31.35889,-102.16133 -81.38332,-86.69761 l -3.2607,-6.33627 z m 0.29999,9.69998 c 1.56576,7.28487 -6.33438,-6.34193 0,0 z"
       id="svg_27"
       inkscape:connector-curvature="0" />
    <path
       d="m 729.60004,512.89996 c -7.87187,3.99938 -69.15487,11.08646 -40.41104,34.61773 20.66487,-3.36671 69.55005,23.20731 38.23091,-3.89639 11.55894,-8.28313 -66.84597,4.35914 -16.2199,-17.52132 39.18064,-12.91264 74.02891,57.42564 37.10431,55.3267 31.03606,-24.45571 -18.22735,-27.46807 -6.07611,-7.47909 -31.26409,20.39005 -9.06755,-24.0526 -37.50997,8.64481 -15.09365,21.59257 -33.74839,45.61808 -33.79822,4.6075 14.17944,-23.32409 -3.85493,-33.93404 -7.3449,-7.11299 -14.00355,31.02097 46.52015,78.93603 34.21209,25.13848 2.95223,-23.87741 41.20349,-24.54435 39.7818,-8.03118 61.60795,-10.25944 29.63016,-72.0819 -7.96897,-84.29425 z M 702,520 c -1.24482,3.81069 -2.31014,-3.91396 0,0 z m 48.20001,17.20001 c -4.54555,0.91381 3.15977,-7.3046 0,0 z M 760,544.59997 c -3.36302,3.6113 -0.2502,-5.28032 0,0 z"
       id="svg_30"
       inkscape:connector-curvature="0" />
    <path
       d="m 735,563 c 2.41328,3.92709 2.41328,-3.92709 0,0 z"
       id="svg_35"
       inkscape:connector-curvature="0" />
    <path
       d="m 784.10004,573.59998 c -17.42095,16.12952 -34.05776,86.5646 -5.08599,32.08973 5.68896,-2.17494 17.60478,-50.52074 5.08599,-32.08973 z M 774,607 c -2.31014,3.91396 -1.24482,-3.81069 0,0 z"
       id="svg_36"
       inkscape:connector-curvature="0" />
    <path
       d="m 728,576 c 3.23687,5.13509 4.55904,-7.88431 0,0 z"
       id="svg_37"
       inkscape:connector-curvature="0" />
    <path
       d="m 722,602.20001 c 6.05572,24.36853 24.8522,14.29881 7.46179,0.11951 L 725.4791,600.59087 722,602.20001 z"
       id="svg_40"
       inkscape:connector-curvature="0" />
    <path
       d="m 744,624.5 c -4.27547,41.92103 -57.39129,35.79671 -71.38974,20.16179 C 694.60914,690.14316 772.15301,666.27339 744,624.5 z m 2,20.5 c -3.47171,4.17077 -2.53663,-4.08463 0,0 z m -4.29999,3.59998 c 0.349,11.1657 -6.4319,-4.67435 0,0 z M 736,653.90002 c -8.67385,14.98371 -7.58074,-7.09079 0,0 z"
       id="svg_46"
       inkscape:connector-curvature="0" />
    <path
       d="m 394.30002,648.09998 c -8.54009,10.41392 -73.57778,2.9326 -66.85916,11.08782 -37.68093,-13.15385 14.46424,45.53505 14.77165,18.96221 3.44002,32.09831 13.76969,-30.37153 11.1875,5.475 5.8654,-7.82211 86.45266,-41.31724 40.90001,-35.52503 z M 323,659.40002 c -1.7734,3.87449 -3.04353,-2.0909 0,0 z m 42,1 c -18.42846,16.11847 -34.49287,-6.20451 0,0 z m -38.89999,3.89997 c -5.17025,2.52312 1.39427,-5.47568 0,0 z M 369,665.90002 c -1.85294,9.03506 -3.96618,-6.64794 0,0 z M 334,668.5 c -3.11141,8.36669 -5.36411,-5.63325 0,0 z m 6.5,0.5 c -1.29455,16.60603 -7.30307,-4.2145 0,0 z m 4.80002,5.20001 c -4.97109,9.75287 0.17677,-9.48634 0,0 z"
       id="svg_53"
       inkscape:connector-curvature="0" />
    <path
       d="m 310.60001,715.79999 c -28.93841,19.21108 60.90825,38.28634 8.80322,15.91597 l -6.35902,-6.3432 -2.4442,-9.57277 z"
       id="svg_86"
       inkscape:connector-curvature="0" />
    <path
       d="m 316.30002,716.5 c -3.37115,8.23281 9.07236,-6.90211 0,0 z"
       id="svg_87"
       inkscape:connector-curvature="0" />
  </g>
</svg>
